<?xml version="1.0" standalone="no"?>
<!DOCTYPE svg PUBLIC "-//W3C//DTD SVG 20010904//EN"
 "http://www.w3.org/TR/2001/REC-SVG-20010904/DTD/svg10.dtd">
<svg version="1.0" xmlns="http://www.w3.org/2000/svg"
 width="180.000000pt" height="180.000000pt" viewBox="0 0 180.000000 180.000000"
 preserveAspectRatio="xMidYMid meet">

<g transform="translate(0.000000,180.000000) scale(0.100000,-0.100000)"
fill="#FFFFFF" stroke="none">
<path d="M1590 1650 c0 -85 -7 -189 -14 -230 -8 -41 -12 -76 -11 -78 1 -1 12
24 25 57 24 65 42 87 61 75 8 -5 9 -3 4 5 -4 8 -17 10 -32 6 -21 -5 -24 -3
-19 11 11 28 8 273 -3 292 -7 12 -11 -30 -11 -138z"/>
<path d="M225 1632 c3 -152 3 -153 -19 -146 -20 6 -20 5 2 -11 13 -9 27 -27
32 -39 8 -22 4 91 -11 254 -7 85 -7 79 -4 -58z"/>
<path d="M1162 1763 c-7 -2 -17 -14 -23 -25 -9 -18 -8 -18 10 -9 30 16 36 13
16 -9 -17 -19 -17 -19 17 -14 22 4 46 0 66 -10 41 -21 49 -20 27 4 -23 26 -6
26 45 0 36 -19 45 -29 38 -46 -2 -3 12 -12 31 -20 39 -16 41 -17 41 -5 0 12
-82 103 -87 97 -3 -3 -22 6 -42 19 -38 27 -68 35 -35 10 24 -18 7 -19 -26 0
-25 14 -55 18 -78 8z"/>
<path d="M578 1596 c-77 -28 -132 -83 -110 -109 8 -10 5 -16 -11 -26 l-21 -14
24 -10 c14 -6 29 -9 34 -8 5 1 16 -4 25 -12 31 -27 46 -30 24 -5 -28 30 -29
59 -4 82 18 17 19 16 25 -36 3 -29 6 -58 7 -65 3 -17 62 -25 93 -13 17 6 34
25 46 52 16 38 26 38 21 -1 -3 -18 23 -8 27 10 4 23 -55 95 -94 114 -30 14
-43 15 -84 5 -32 -8 -54 -20 -65 -36 -8 -13 -23 -24 -32 -24 -25 0 21 45 72
70 71 34 126 24 178 -35 18 -20 18 -20 8 0 -29 61 -97 86 -163 61z m105 -113
c15 -49 2 -80 -35 -88 -26 -6 -35 -3 -50 15 -38 47 -12 110 45 107 26 -2 33
-7 40 -34z"/>
<path d="M623 1474 c-8 -21 13 -42 28 -27 13 13 5 43 -11 43 -6 0 -13 -7 -17
-16z"/>
<path d="M1135 1592 c-28 -17 -65 -62 -65 -77 0 -3 17 12 38 35 32 33 45 40
77 40 21 0 57 -9 80 -20 43 -21 97 -70 77 -70 -7 0 -12 5 -12 10 0 6 -7 10
-17 10 -9 0 -13 3 -10 7 10 10 -25 31 -64 38 -59 11 -130 -31 -165 -96 -12
-23 -11 -29 1 -39 13 -10 15 -8 15 13 0 14 5 29 10 32 6 3 10 -3 10 -15 0 -60
48 -96 111 -83 28 5 49 47 49 99 l1 29 19 -24 c26 -30 25 -37 -6 -66 -32 -30
-23 -33 16 -5 15 11 45 24 66 28 l39 9 -27 13 c-22 10 -25 16 -17 27 9 10 5
21 -16 49 -48 63 -154 91 -210 56z m102 -98 c28 -38 -4 -104 -49 -104 -38 0
-76 67 -48 85 6 3 10 15 10 26 0 17 6 19 37 15 20 -2 43 -12 50 -22z"/>
<path d="M1170 1485 c-11 -13 -11 -19 2 -32 17 -16 38 -10 38 11 0 8 -6 19
-14 25 -10 9 -16 8 -26 -4z"/>
<path d="M157 1407 c-3 -7 2 -29 11 -48 9 -18 19 -43 23 -54 6 -17 8 -15 14
13 4 17 11 32 15 32 16 0 29 -52 23 -99 -4 -36 -1 -55 11 -72 18 -26 21 -65 6
-74 -17 -10 -11 -21 11 -21 18 0 20 5 15 41 -3 22 -8 69 -12 105 -7 68 -21
104 -61 158 -25 33 -47 41 -56 19z"/>
<path d="M1623 1398 c-56 -64 -63 -84 -74 -205 -27 -327 -85 -491 -225 -642
-65 -71 -236 -190 -314 -219 l-55 -20 48 -7 c28 -4 66 -3 95 5 62 15 215 89
273 131 152 111 253 331 179 391 -23 18 -23 20 -6 30 17 9 17 10 0 23 -17 12
-16 13 3 19 12 4 24 14 27 23 5 13 4 14 -9 3 -13 -11 -15 -7 -14 26 0 22 4 62
9 89 6 40 9 46 15 28 12 -37 28 -14 21 30 -5 30 -3 44 10 58 13 15 15 29 10
66 -6 44 -5 46 8 27 8 -11 17 -43 19 -70 3 -36 4 -29 4 26 1 41 8 95 17 119
22 59 21 91 -2 91 -10 0 -28 -10 -39 -22z"/>
<path d="M1063 1118 c0 -33 -28 -62 -51 -53 -7 2 -10 0 -7 -5 9 -14 48 -13 63
2 14 14 16 74 4 82 -5 3 -9 -9 -9 -26z"/>
<path d="M747 1133 c-4 -7 -5 -29 -1 -49 6 -35 8 -36 43 -30 20 4 45 7 56 6
50 -1 102 -7 116 -14 8 -4 6 -1 -5 8 -18 14 -17 15 10 21 58 12 78 38 34 43
-17 2 -34 -6 -50 -23 -30 -32 -51 -32 -79 1 -15 17 -30 24 -48 22 -29 -3 -45
-28 -19 -28 9 0 16 -4 16 -10 0 -14 -36 -12 -48 3 -5 6 -12 23 -14 37 -2 17
-6 21 -11 13z"/>
<path d="M295 996 c3 -34 1 -64 -5 -71 -8 -9 -6 -14 6 -19 9 -4 19 -5 21 -2 2
2 -3 37 -11 77 l-16 74 5 -59z"/>
<path d="M1048 1013 c7 -3 16 -2 19 1 4 3 -2 6 -13 5 -11 0 -14 -3 -6 -6z"/>
<path d="M795 838 c-11 -6 -35 -14 -54 -17 -20 -4 -40 -16 -50 -30 -15 -23
-15 -24 6 -13 28 15 30 15 37 -3 3 -10 -20 -48 -62 -103 -38 -48 -80 -104 -94
-125 l-26 -38 -51 58 c-47 52 -51 55 -51 31 0 -17 9 -32 26 -43 19 -12 25 -23
22 -46 -2 -18 3 -33 11 -38 11 -7 10 -14 -6 -37 -36 -53 -36 -54 -4 -48 53 11
91 -41 70 -93 l-11 -28 -10 28 c-5 15 -15 27 -21 27 -8 0 -7 -4 1 -12 15 -15
16 -64 2 -73 -5 -3 -10 2 -10 13 0 10 -11 29 -25 42 l-25 23 0 -24 c0 -14 5
-30 12 -37 15 -15 6 -24 -15 -17 -9 4 -14 17 -13 35 1 19 -2 26 -11 23 -12 -5
-10 -73 3 -94 12 -20 63 -8 93 22 l31 31 49 -36 c49 -36 68 -45 56 -26 -3 6 3
10 14 10 12 0 21 7 21 15 0 9 9 15 25 15 21 0 25 -5 25 -27 0 -34 14 -58 28
-49 6 3 13 2 17 -4 3 -5 11 -10 17 -10 6 0 6 6 -2 15 -10 12 -10 19 -2 27 9 9
8 16 -5 30 -14 16 -14 18 -1 18 8 0 27 -9 41 -20 27 -21 42 -15 26 10 -13 22
-11 27 11 33 11 3 42 -3 70 -14 28 -10 59 -19 70 -19 11 0 19 -3 19 -7 -4 -23
3 -33 22 -33 29 0 59 18 59 35 0 12 14 15 63 15 34 1 80 8 102 16 22 9 50 18
63 21 12 3 22 9 22 14 0 5 6 9 14 9 27 0 133 108 159 162 40 83 55 123 62 162
7 35 8 36 54 36 25 0 63 -5 84 -11 22 -6 42 -8 45 -4 13 13 -31 34 -99 46
l-69 12 6 38 c6 35 -9 104 -24 113 -4 2 -7 -44 -7 -102 0 -99 -2 -112 -31
-172 -17 -36 -50 -87 -72 -114 -23 -27 -38 -54 -35 -59 3 -6 1 -7 -5 -3 -6 4
-37 -14 -69 -40 -139 -113 -294 -136 -413 -60 -19 13 -57 26 -83 29 -47 7
-136 48 -186 86 l-23 18 30 54 c16 30 37 68 46 86 l16 32 33 -22 c28 -19 45
-22 116 -21 76 2 85 5 112 29 31 31 59 83 59 112 -1 13 -10 8 -38 -24 -44 -50
-75 -63 -147 -63 -64 0 -105 14 -105 35 0 13 5 12 35 -2 31 -15 43 -15 92 -5
62 13 95 38 145 110 25 36 34 43 54 38 29 -8 31 5 5 28 -18 16 -22 16 -49 2
-28 -14 -34 -14 -75 4 -25 11 -65 20 -89 19 -24 0 -59 2 -78 5 -20 4 -43 1
-55 -6z m50 -55 c-10 -16 -25 -38 -32 -50 -14 -20 -16 -21 -42 -5 l-29 16 27
33 c20 26 34 33 60 33 l33 0 -17 -27z m185 -38 c0 -21 -45 -65 -67 -66 -10 0
-39 -2 -65 -5 -41 -4 -48 -2 -48 13 1 29 33 61 65 66 74 10 115 7 115 -8z
m-196 -20 c-9 -14 -21 -25 -27 -25 -6 0 0 11 13 25 13 14 25 25 27 25 2 0 -4
-11 -13 -25z m-69 -7 c44 -20 42 -51 -7 -126 -25 -37 -68 -106 -97 -154 -29
-49 -54 -88 -56 -88 -3 0 -11 13 -20 30 -9 18 -27 33 -44 37 l-29 8 92 133
c85 121 124 172 132 172 2 0 15 -5 29 -12z m26 -418 c28 0 60 5 72 11 15 7 13
2 -8 -16 -42 -35 -98 -49 -170 -40 -33 4 -70 8 -82 9 -13 0 -23 2 -23 3 0 1
14 18 30 37 l30 34 50 -19 c28 -10 73 -19 101 -19z"/>
<path d="M1197 199 c-16 -10 -25 -59 -9 -59 4 0 20 11 36 24 29 22 29 24 10
34 -13 7 -25 7 -37 1z"/>
<path d="M987 160 c-16 -16 -15 -18 16 -34 18 -10 41 -16 52 -15 18 4 16 8
-15 35 -33 29 -36 30 -53 14z"/>
</g>
</svg>
